<svg xmlns="http://www.w3.org/2000/svg" viewBox="0 0 320 320" fill="none" id="bg-confetti-light"><rect width="320" height="320" fill="#f8f7f5"/><circle cx="118" cy="52" r="2.2" fill="#a898d8" opacity="0.24"/><circle cx="268" cy="168" r="1.8" fill="#78b8d8" opacity="0.22"/><circle cx="44" cy="238" r="2" fill="#d8b078" opacity="0.22"/><circle cx="188" cy="118" r="1.6" fill="#c898c8" opacity="0.2"/><circle cx="72" cy="188" r="2.4" fill="#88c8e0" opacity="0.2"/><rect x="252" y="88" width="4" height="7" rx="1" fill="#8898d8" opacity="0.23" transform="rotate(24 254 91.5)"/><rect x="86" y="178" width="3" height="6" rx="0.8" fill="#d898b8" opacity="0.22" transform="rotate(-32 87.5 181)"/><rect x="188" y="268" width="4" height="5" rx="0.8" fill="#88c8a8" opacity="0.2" transform="rotate(18 190 270.5)"/><rect x="28" y="98" width="3.5" height="5.5" rx="0.7" fill="#b8a8e8" opacity="0.22" transform="rotate(-18 29.75 100.75)"/><rect x="228" y="42" width="4" height="6" rx="0.8" fill="#e0a888" opacity="0.2" transform="rotate(42 230 45)"/><path d="M156 76l3-8 3 8 8 3-8 3-3 8-3-8-8-3 8-3z" fill="#a888d8" opacity="0.2"/><path d="M62 142l2-5 2 5 5 2-5 2-2 5-2-5-5-2 5-2z" fill="#78b0c8" opacity="0.22"/></svg>
