<svg xmlns="http://www.w3.org/2000/svg" viewBox="0 0 320 320" fill="none" id="bg-celebration-glow"><rect width="320" height="320" fill="#f9f8f6"/><circle cx="168" cy="64" r="3" fill="#d0b8f0" opacity="0.22"/><circle cx="52" cy="202" r="2.2" fill="#b8d0f0" opacity="0.24"/><circle cx="286" cy="118" r="2.5" fill="#f0d8b0" opacity="0.22"/><circle cx="198" cy="278" r="2" fill="#d0c0e8" opacity="0.2"/><circle cx="96" cy="88" r="2.8" fill="#f0c0d8" opacity="0.2"/><rect x="124" y="156" width="5" height="8" rx="1" fill="#c0b0e0" opacity="0.22" transform="rotate(-22 126.5 160)"/><rect x="20" y="96" width="4" height="6" rx="1" fill="#a8c8e0" opacity="0.22" transform="rotate(28 22 99)"/><path d="M242 198l2.5-6 2.5 6 6 2.5-6 2.5-2.5 6-2.5-6-6-2.5 6-2.5z" fill="#b898e0" opacity="0.2"/><path d="M78 124l2-4.5 2 4.5 4.5 2-4.5 2-2 4.5-2-4.5-4.5-2 4.5-2z" fill="#88b8d0" opacity="0.22"/><rect x="260" y="248" width="3.5" height="5" rx="0.7" fill="#e8b8a8" opacity="0.2" transform="rotate(15 261.75 250.5)"/></svg>
