<svg xmlns="http://www.w3.org/2000/svg" viewBox="0 0 320 320" fill="none" id="bg-fun-rise"><rect width="320" height="320" fill="#f8f8f6"/><g stroke-linecap="round" fill="none" stroke-width="1.4" opacity="0.22"><path d="M58 278 Q60 262 58 248" stroke="#8878b8"/><path d="M128 238 Q130 222 128 208" stroke="#6898c8"/><path d="M202 198 Q204 182 202 168" stroke="#c87898"/><path d="M268 162 Q270 146 268 132" stroke="#a888d8"/><path d="M168 292 Q170 276 168 262" stroke="#78a8d8"/></g><g opacity="0.24"><ellipse cx="58" cy="232" rx="9" ry="11" fill="#b898d8" transform="rotate(-6 58 232)"/><ellipse cx="128" cy="192" rx="8" ry="10" fill="#88b8e8" transform="rotate(4 128 192)"/><ellipse cx="202" cy="152" rx="7.5" ry="9.5" fill="#e898b8" transform="rotate(-3 202 152)"/><ellipse cx="268" cy="116" rx="7" ry="9" fill="#c8a8e8" transform="rotate(8 268 116)"/><ellipse cx="168" cy="246" rx="6.5" ry="8.5" fill="#98c0e8" transform="rotate(-5 168 246)"/></g></svg>
