<svg xmlns="http://www.w3.org/2000/svg" viewBox="0 0 320 320" fill="none" id="bg-gift-minimal"><rect width="320" height="320" fill="#f8f7f5"/><g opacity="0.22"><g transform="translate(52 68) rotate(-8)"><rect x="2" y="8" width="20" height="16" rx="1.5" fill="#b89878"/><rect x="11" y="8" width="2" height="16" fill="#887058"/><rect x="2" y="15" width="20" height="2" fill="#887058"/></g><g transform="translate(208 148) rotate(10)"><rect x="2" y="7" width="18" height="14" rx="1.2" fill="#8898a8"/><rect x="10" y="7" width="2" height="14" fill="#607080"/><rect x="2" y="13" width="18" height="2" fill="#607080"/></g><g transform="translate(132 228) rotate(-5)"><rect x="2" y="8" width="19" height="15" rx="1.3" fill="#c8a898"/><rect x="10.5" y="8" width="2" height="15" fill="#907868"/><rect x="2" y="14.5" width="19" height="2" fill="#907868"/></g></g><path d="M248 44v52M224 70h48" stroke="#a898c8" stroke-width="2" opacity="0.2" stroke-linecap="round"/><path d="M96 214v40M78 234h36" stroke="#c8a090" stroke-width="1.8" opacity="0.2" stroke-linecap="round"/></svg>
