<svg xmlns="http://www.w3.org/2000/svg" viewBox="0 0 320 320" fill="none" id="bg-magic-twinkle"><rect width="320" height="320" fill="#f9f8fa"/><g fill="#9888c8"><path opacity="0.24" d="M58 68l2.2-6.5 2.2 6.5 6.5 2.2-6.5 2.2-2.2 6.5-2.2-6.5-6.5-2.2 6.5-2.2z"/><path opacity="0.22" d="M248 108l1.8-5 1.8 5 5 1.8-5 1.8-1.8 5-1.8-5-5-1.8 5-1.8z"/><path opacity="0.2" d="M142 218l2.5-7 2.5 7 7 2.5-7 2.5-2.5 7-2.5-7-7-2.5 7-2.5z"/><path opacity="0.22" d="M288 262l1.5-4.2 1.5 4.2 4.2 1.5-4.2 1.5-1.5 4.2-1.5-4.2-4.2-1.5 4.2-1.5z"/><path opacity="0.18" d="M168 42l1.2-3.5 1.2 3.5 3.5 1.2-3.5 1.2-1.2 3.5-1.2-3.5-3.5-1.2 3.5-1.2z"/><path opacity="0.2" d="M92 278l2-5.5 2 5.5 5.5 2-5.5 2-2 5.5-2-5.5-5.5-2 5.5-2z"/></g></svg>
