<svg xmlns="http://www.w3.org/2000/svg" viewBox="0 0 320 320" fill="none" id="bg-magic-trail"><rect width="320" height="320" fill="#f8f7fa"/><g fill="#9088c8"><path opacity="0.24" d="M42 58l2-6 2 6 6 2-6 2-2 6-2-6-6-2 6-2z"/><path opacity="0.22" d="M218 92l1.5-4 1.5 4 4 1.5-4 1.5-1.5 4-1.5-4-4-1.5 4-1.5z"/><path opacity="0.2" d="M124 198l2-5 2 5 5 2-5 2-2 5-2-5-5-2 5-2z"/><path opacity="0.22" d="M268 48l1.8-5.2 1.8 5.2 5.2 1.8-5.2 1.8-1.8 5.2-1.8-5.2-5.2-1.8 5.2-1.8z"/><path opacity="0.2" d="M76 262l2.2-6 2.2 6 6 2.2-6 2.2-2.2 6-2.2-6-6-2.2 6-2.2z"/><path opacity="0.18" d="M188 278l1.2-3.5 1.2 3.5 3.5 1.2-3.5 1.2-1.2 3.5-1.2-3.5-3.5-1.2 3.5-1.2z"/></g></svg>
