<svg xmlns="http://www.w3.org/2000/svg" viewBox="0 0 320 320" fill="none" id="bg-party-dust"><rect width="320" height="320" fill="#faf9f7"/><circle cx="228" cy="58" r="1.6" fill="#c8a8f0" opacity="0.25"/><circle cx="104" cy="188" r="2" fill="#a8d0e8" opacity="0.24"/><circle cx="272" cy="242" r="1.5" fill="#f0c0a0" opacity="0.24"/><circle cx="38" cy="132" r="1.8" fill="#d8b8e8" opacity="0.22"/><circle cx="200" cy="302" r="1.4" fill="#a8d8c0" opacity="0.22"/><circle cx="156" cy="96" r="2.2" fill="#e8b8d8" opacity="0.2"/><rect x="260" y="176" width="3" height="5" rx="0.6" fill="#a8a8e0" opacity="0.24" transform="rotate(35 261.5 178.5)"/><rect x="48" y="62" width="3.5" height="5" rx="0.6" fill="#e8a8c0" opacity="0.22" transform="rotate(-25 49.75 64.5)"/><path d="M72 244l1.8-4 1.8 4 4 1.8-4 1.8-1.8 4-1.8-4-4-1.8 4-1.8z" fill="#b898d8" opacity="0.22"/><path d="M268 108l2-4.5 2 4.5 4.5 2-4.5 2-2 4.5-2-4.5-4.5-2 4.5-2z" fill="#88c8e8" opacity="0.2"/></svg>
